# Blender v2.82 (sub 7) OBJ File: 'simple_car.blend'
# www.blender.org
mtllib car.mtl
o Cube
v 0.751506 1.786281 -1.000000
v 0.751506 0.213719 -1.000000
v 0.751506 1.786281 0.306168
v 0.751506 0.213719 1.000000
v -0.751506 1.786281 -1.000000
v -0.751506 0.213719 -1.000000
v -0.751506 1.786281 0.306168
v -0.751506 0.213719 1.000000
v -0.751506 1.000000 0.306168
v 0.751506 1.000000 0.306168
vt 0.875000 0.500000
vt 0.625000 0.750000
vt 0.625000 0.500000
vt 0.500000 1.000000
vt 0.500000 0.750000
vt 0.500000 0.000000
vt 0.625000 0.250000
vt 0.375000 0.250000
vt 0.375000 0.500000
vt 0.125000 0.750000
vt 0.125000 0.500000
vt 0.375000 1.000000
vt 0.375000 0.750000
vt 0.875000 0.750000
vt 0.625000 1.000000
vt 0.375000 0.000000
vt 0.625000 0.000000
vn 0.0000 1.0000 0.0000
vn 0.0000 0.0000 1.0000
vn -1.0000 0.0000 0.0000
vn 0.0000 -1.0000 0.0000
vn 1.0000 0.0000 0.0000
vn 0.0000 0.0000 -1.0000
vn 0.0000 0.6617 0.7498
usemtl Material
s off
f 5/1/1 3/2/1 1/3/1
f 3/2/2 9/4/2 10/5/2
f 9/6/3 5/7/3 6/8/3
f 2/9/4 8/10/4 6/11/4
f 1/3/5 3/2/5 10/5/5
f 5/7/6 2/9/6 6/8/6
f 10/5/7 8/12/7 4/13/7
f 5/1/1 7/14/1 3/2/1
f 3/2/2 7/15/2 9/4/2
f 6/8/3 8/16/3 9/6/3
f 9/6/3 7/17/3 5/7/3
f 2/9/4 4/13/4 8/10/4
f 4/13/5 2/9/5 10/5/5
f 2/9/5 1/3/5 10/5/5
f 5/7/6 1/3/6 2/9/6
f 10/5/7 9/4/7 8/12/7
